PathFileType	4	(X/Y/Z)	Patient4_TMGait_0pt3_01_right_08.trc.trc
DataRate	CameraRate	NumFrames	NumMarkers	Units	OrigDataRate	OrigDataStartFrame	OrigNumFrames
51.282051282051	51.282051282051	4	33	mm	51.282051282051	71	       141
Frame#	Time	Sacral			L.Shoulder			Chest			R.Shoulder			Neck			R.ASIS			L.ASIS			R.Thigh.Superior			R.Thigh.Lateral			R.Thigh.Inferior			R.Patella			L.Thigh.Superior			L.Thigh.Lateral			L.Thigh.Inferior			L.Patella			L.Shank.Superior			L.Shank.Lateral			L.Shank.Inferior			R.Shank.Superior			R.Shank.Lateral			R.Shank.Inferior			R.Heel			R.Midfoot.Superior			R.Midfoot.Lateral			R.Toe			L.Heel			L.Midfoot.Lateral			L.Midfoot.Superior			L.Toe			L.Elbow			L.Wrist			R.Elbow			R.Wrist			
		X1	Y1	Z1	X2	Y2	Z2	X3	Y3	Z3	X4	Y4	Z4	X5	Y5	Z5	X6	Y6	Z6	X7	Y7	Z7	X8	Y8	Z8	X9	Y9	Z9	X10	Y10	Z10	X11	Y11	Z11	X12	Y12	Z12	X13	Y13	Z13	X14	Y14	Z14	X15	Y15	Z15	X16	Y16	Z16	X17	Y17	Z17	X18	Y18	Z18	X19	Y19	Z19	X20	Y20	Z20	X21	Y21	Z21	X22	Y22	Z22	X23	Y23	Z23	X24	Y24	Z24	X25	Y25	Z25	X26	Y26	Z26	X27	Y27	Z27	X28	Y28	Z28	X29	Y29	Z29	X30	Y30	Z30	X31	Y31	Z31	X32	Y32	Z32	X33	Y33	Z33	

71	14.935000000000	740.884672390962	1006.882315782166	603.080502421697	893.478557360973	1426.867426445087	384.037044082857	1024.858685133371	1359.588277481093	523.432062256739	979.639149841865	1441.915994930947	706.963602020507	906.779767326855	1491.147741136338	543.413983144455	983.354622474910	937.994589197136	683.418259596009	928.748798893938	957.449783030257	413.782367207833	991.261977989032	729.755591368607	649.397034234054	902.853452720657	626.602240781227	716.373716493492	960.808867193411	568.942014805033	627.829585377015	948.067089649558	482.955611686275	632.349361460924	1002.137774273949	764.457055011356	436.293185605797	937.048283766541	641.204778688582	363.522554401890	1039.537400868817	577.149694931223	418.738247964368	1059.417445244979	510.488140918185	414.109669062485	1037.518900777663	438.857984439030	400.974766699533	959.415276585361	316.353883619434	348.960630478870	1040.541401926767	208.807392170534	397.097426821027	913.301239075130	396.427254780314	639.838061942047	836.283354452939	296.460817837536	701.251217542643	866.328829088370	201.312635367675	633.548392526522	721.234826618763	42.575613001059	598.323747683615	891.710342141631	96.409359882014	639.750108805029	802.033823123550	36.327788817827	676.393189975316	1010.514795195299	45.231562183538	671.605658584177	942.847659953539	38.617151190681	433.593884046198	1012.336132191274	41.155216782716	349.458519222359	1091.546694436368	109.632431474268	370.688292000296	1219.897359028632	69.300866573105	334.536090711434	749.909460296856	1097.450713201214	310.971433081536	742.073283620129	836.960993638984	337.383681054255	1134.192303171387	1143.097381794279	830.513443057343	1377.418432690012	1188.149764787281	771.627414135449	
72	14.954500000000	741.465467799220	1006.217565974344	600.967275526884	892.176856077829	1425.347660099488	379.445787466042	1024.345575020379	1358.990495495525	518.524358975159	979.711168790672	1441.892395764231	701.894681109785	906.103773127560	1490.402821976214	538.474170423668	984.489211096104	937.697276293411	680.429093911557	928.441827595798	956.108897769472	411.144034202029	991.059328679954	728.884691458162	647.050445972681	901.828903323414	626.315757551789	714.570903665283	958.754994448313	567.992829999564	626.134942467461	945.066605282478	482.122635882112	630.870167070598	1000.570065406192	761.595686285548	432.413717003115	932.444533252965	638.714133478021	361.861990840458	1035.579526935301	574.441485481939	415.636147486095	1054.048214723393	507.694155738671	411.890582585318	1032.686221687348	436.264158325400	399.022721602602	954.259651168121	313.512425037961	348.179764929174	1035.683621460878	206.244615138997	396.303135901938	909.740764373352	395.879408060964	638.635300705443	832.208899439325	296.599051471174	700.656728530075	861.369794429545	201.046982459120	633.098492958124	715.393120258104	42.656178976040	598.375757766749	885.929510796203	96.362149052614	639.700858430339	796.198093749767	36.332608463853	676.401041250531	1004.704859322421	45.006797318602	671.605965933681	937.305435269856	37.802738064811	434.144189164929	1006.395482061043	39.208074234881	349.573778367859	1086.638991489524	106.365641478223	370.405658818946	1214.380921983318	64.137318140928	333.747257776353	750.902032147379	1094.441297028149	308.487927443712	748.516579903775	833.556955248549	333.732590294406	1138.186842316656	1145.248509524420	824.775121199172	1379.984077732590	1194.856868923121	764.069106673938	
73	14.974000000000	742.146536915132	1005.613816563886	598.640909525521	890.966130386126	1423.880291892679	374.746648284936	1023.931373807030	1358.449404308693	513.482768295004	979.907483742200	1441.882527987880	696.722397837530	905.533637908374	1489.704880053411	533.406619208517	985.731614908862	937.361241878472	677.141509842701	928.231043920117	955.004018053209	408.253519562356	991.073725203999	727.993583631620	644.416759169698	901.074267441125	625.987762106844	712.484478526973	957.014895019523	567.026320349833	624.171930196561	942.441816264211	481.226716773744	629.162354305740	999.569652934032	759.391456150236	428.660797449527	928.997195666197	636.769737948556	360.078968177878	1032.672346753907	572.356541029400	412.616039226771	1049.778682304893	505.351406466256	409.680785765082	1028.799432717303	433.965755557317	397.086480128579	949.792719224987	311.225927882277	347.163576936267	1030.941024544172	203.959700565775	395.506562433106	906.441769795842	395.296887340018	637.250204561367	828.317050250452	296.805645228832	699.959616032817	856.531369231014	200.791615447390	632.581398805413	709.567744857051	42.770276636978	598.430190504968	880.179195880994	96.330680788939	639.652420918829	790.380743791233	36.348043681415	676.396401827981	998.908395336889	44.750512645517	671.613911450215	931.346925639195	37.303659702282	434.563478908626	1000.111355600071	37.644452352961	349.621929975230	1081.384125701885	103.475307005878	370.191752078270	1208.541766796013	59.385596289308	333.113349699155	752.710054276626	1091.170393897496	305.673612601530	756.524172832914	830.044902810203	329.119733609303	1141.290442257523	1146.890168244636	819.145023172593	1381.976608517696	1199.642473216924	756.922496039635	
74	14.993500000000	742.896670486137	1005.130600086551	596.096366370339	889.831470012703	1422.541598461137	370.017238644224	1023.622409221440	1357.986206024830	508.343309637833	980.292679951895	1441.898485011044	691.505015796997	905.086245484025	1489.092016084213	528.296340702175	987.007924666797	936.998604305625	673.541456459827	928.073743562106	954.186221630124	405.069640467462	991.134630948030	727.097034584550	641.498700911668	900.406955426487	625.669351421944	710.136512303593	955.410212622974	566.073052627078	621.966368316065	940.024593976121	480.314208656257	627.260966543154	999.172933545913	757.977655704848	425.095795862513	926.880727753249	635.448046636985	358.124206929214	1030.932387909929	570.954187507313	409.716554340868	1046.777708134385	503.530953766899	407.511686441742	1025.995356820870	432.036570663721	395.212256532401	946.206195744031	309.566430690569	345.893924862884	1026.463699816766	202.032670306414	394.740979446783	903.270053453310	394.724004205317	635.713889269437	824.499105035230	297.104054562218	699.161771560005	851.758484946390	200.577314539532	632.010192393838	703.760380675209	42.932075085634	598.485533312687	874.458401592850	96.317481689415	639.609057735936	784.583552898804	36.382563252762	676.377849443770	993.125203864669	44.456188322398	671.632573676531	925.198219836323	37.080516370322	434.830921348874	993.723972871950	36.503549104950	349.601746047587	1075.938630923421	101.107298176806	370.050528724632	1202.581107312194	55.338558550655	332.652895533165	755.174832615260	1087.807325750795	302.528828147290	765.963888055563	826.663496318533	323.536873675698	1143.614733392250	1148.045041070775	813.679092437194	1383.567769360948	1202.545119580019	750.209614012706	
